HIERARCHY
ROOT Hips
{
	OFFSET	0.00	0.00	0.00
	CHANNELS 6 Xposition Yposition Zposition Zrotation Xrotation Yrotation
	JOINT LeftUpLeg
	{
		OFFSET	 0.126116	-0.014019	-0.065224
		CHANNELS 3 Zrotation Xrotation Yrotation
		JOINT LeftLeg
		{
			OFFSET	 0.000000	 0.000000	 0.569914
			CHANNELS 3 Zrotation Xrotation Yrotation
			JOINT LeftFoot
			{
				OFFSET	 0.000000	 0.000000	 0.544423
				CHANNELS 3 Zrotation Xrotation Yrotation
				JOINT LeftToeBase
				{
					OFFSET	 0.000000	 0.000000	 0.207117
					CHANNELS 3 Zrotation Xrotation Yrotation
					End Site
					{
						OFFSET	 0.000000	 0.000000	 0.207117
					}
				}
			}
		}
	}
	JOINT RightUpLeg
	{
		OFFSET	-0.124023	-0.008373	-0.065224
		CHANNELS 3 Zrotation Xrotation Yrotation
		JOINT RightLeg
		{
			OFFSET	 0.000000	 0.000000	 0.570047
			CHANNELS 3 Zrotation Xrotation Yrotation
			JOINT RightFoot
			{
				OFFSET	 0.000000	 0.000000	 0.544354
				CHANNELS 3 Zrotation Xrotation Yrotation
				JOINT RightToeBase
				{
					OFFSET	 0.000000	 0.000000	 0.207540
					CHANNELS 3 Zrotation Xrotation Yrotation
					End Site
					{
						OFFSET	 0.000000	 0.000000	 0.207540
					}
				}
			}
		}
	}
	JOINT Spine
	{
		OFFSET	 0.000184	-0.007763	 0.117403
		CHANNELS 3 Zrotation Xrotation Yrotation
		JOINT Spine1
		{
			OFFSET	 0.000000	 0.000000	 0.137269
			CHANNELS 3 Zrotation Xrotation Yrotation
			JOINT Spine2
			{
				OFFSET	 0.000000	 0.000000	 0.156879
				CHANNELS 3 Zrotation Xrotation Yrotation
				JOINT LeftShoulder
				{
					OFFSET	 0.080501	-0.002496	 0.160144
					CHANNELS 3 Zrotation Xrotation Yrotation
					JOINT LeftArm
					{
						OFFSET	 0.000000	 0.000000	 0.164363
						CHANNELS 3 Zrotation Xrotation Yrotation
						JOINT LeftForeArm
						{
							OFFSET	 0.000000	 0.000000	 0.364576
							CHANNELS 3 Zrotation Xrotation Yrotation
							JOINT LeftHand
							{
								OFFSET	 0.000000	 0.000000	 0.360812
								CHANNELS 3 Zrotation Xrotation Yrotation
								JOINT LeftHandIndex1
								{
									OFFSET	 0.000000	 0.000000	 0.086006
									CHANNELS 3 Zrotation Xrotation Yrotation
									JOINT LeftHandIndex2
									{
										OFFSET	 0.000000	 0.000000	 0.047237
										CHANNELS 3 Zrotation Xrotation Yrotation
										JOINT LeftHandIndex3
										{
											OFFSET	-0.004284	-0.000551	 0.038165
											CHANNELS 3 Zrotation Xrotation Yrotation
											End Site
											{
												OFFSET	-0.004284	-0.000551	 0.038165
											}
										}
									}
								}
							}
						}
					}
				}
				JOINT Neck
				{
					OFFSET	 0.000000	 0.000000	 0.176489
					CHANNELS 3 Zrotation Xrotation Yrotation
					JOINT Head
					{
						OFFSET	 0.000000	-0.001747	 0.077940
						CHANNELS 3 Zrotation Xrotation Yrotation
						End Site
						{
							OFFSET	 0.000000	-0.001747	 0.077940
						}
					}
				}
				JOINT RightShoulder
				{
					OFFSET	-0.080363	 0.000306	 0.159706
					CHANNELS 3 Zrotation Xrotation Yrotation
					JOINT RightArm
					{
						OFFSET	 0.000000	 0.000000	 0.164196
						CHANNELS 3 Zrotation Xrotation Yrotation
						JOINT RightForeArm
						{
							OFFSET	 0.000000	 0.000000	 0.365611
							CHANNELS 3 Zrotation Xrotation Yrotation
							JOINT RightHand
							{
								OFFSET	 0.000000	 0.000000	 0.360648
								CHANNELS 3 Zrotation Xrotation Yrotation
								JOINT RightHandIndex1
								{
									OFFSET	 0.000000	 0.000000	 0.069977
									CHANNELS 3 Zrotation Xrotation Yrotation
									JOINT RightHandIndex2
									{
										OFFSET	 0.000000	 0.000000	 0.052305
										CHANNELS 3 Zrotation Xrotation Yrotation
										JOINT RightHandIndex3
										{
											OFFSET	 0.009002	-0.000782	 0.042196
											CHANNELS 3 Zrotation Xrotation Yrotation
											End Site
											{
												OFFSET	 0.009002	-0.000782	 0.042196
											}
										}
									}
								}
							}
						}
					}
				}
			}
		}
	}
}
MOTION
Frames:    13
Frame Time: 0.03333334
-0.462308	-0.032887	 1.275329	 179.372000	-2.681762	 5.366737	 11.157530	-3.448340	 174.069700	-8.168567	-19.450660	-2.927211	 6.802086	 76.490910	-17.715660	-2.385833	 28.452760	 0.000004	 26.169860	 0.377414	 173.049200	 2.641725	-7.122737	 0.138785	 2.792041	 65.821310	 11.740570	 2.384659	 28.388700	-0.000001	-10.095520	 7.692085	-7.148750	-3.800236	 5.953208	-14.305360	 15.503520	-1.344648	 26.253700	-91.776210	 78.527400	-180.000000	-78.382120	 7.371156	-4.417519	 0.636539	-2.097664	-38.627390	-0.621746	-23.918780	-2.005114	-4.130319	 21.525730	 0.991547	-5.167930	 0.731704	 3.519349	-1.378229	 35.397820	-2.634230	-2.832803	 0.723543	 1.735240	-9.708913	-28.524640	-11.901000	 89.782150	 78.203850	 180.000000	-26.139410	-10.477370	-15.459430	-12.475770	-10.132530	 57.382840	 22.966220	 16.582580	 124.002200	 5.716227	 19.173190	-3.685159	 5.027444	 0.246877	-9.377972	-2.350882	 35.473990	 5.254307
-0.462976	-0.033239	 1.274266	 179.555100	-2.641696	 5.984660	 13.387740	-5.793175	 173.257100	-9.886932	-23.878650	-4.269106	 9.860873	 78.972150	-19.675980	-2.385833	 28.452760	 0.000004	 25.445400	-2.689327	 173.128400	 3.468836	-13.401100	 0.451223	-0.024239	 68.320830	 13.993320	 2.384659	 28.388700	-0.000001	-10.197900	 7.647398	-8.222280	-4.312853	 7.260538	-14.131570	 15.912490	-3.121367	 26.956830	-91.776180	 78.527380	-180.000000	-82.052410	 13.123240	 11.188330	-0.958281	-2.500830	-67.646870	-1.204600	-23.127750	-2.244628	-4.130319	 21.525730	 0.991547	-5.167930	 0.731704	 3.519349	-1.378229	 35.397820	-2.634230	-3.175181	 1.239651	 2.181863	-10.617050	-30.332170	-13.795650	 89.782140	 78.203870	 180.000000	-24.048650	-10.683900	-19.198910	-8.771490	-12.080950	 77.214690	 23.182030	 18.431270	 120.307000	 5.716227	 19.173190	-3.685159	 5.027444	 0.246877	-9.377972	-2.350882	 35.473990	 5.254307
-0.465043	-0.035199	 1.267160	-179.634100	-1.299462	 5.782737	 9.959730	-12.155440	 174.531900	-11.620780	-38.360900	-7.631035	 12.865180	 88.548010	-22.793700	-2.385833	 28.452760	 0.000004	 23.819160	-11.084430	 177.121800	 4.102948	-31.127030	 1.334511	 12.794420	 78.238750	-0.038443	 2.384659	 28.388700	-0.000001	-13.007300	 5.939354	-8.508256	-6.593506	 9.545710	-13.867130	 16.312110	-3.906322	 27.423770	-91.776250	 78.527380	-179.999900	-27.260730	 47.622940	 12.162180	-3.878563	-2.291219	-129.571900	-0.968476	-23.889260	-2.251970	-4.130319	 21.525730	 0.991547	-5.167930	 0.731704	 3.519349	-1.378229	 35.397820	-2.634230	-3.070703	 0.762796	 2.007884	-10.421840	-29.385650	-13.739800	 89.782160	 78.203870	 179.999900	-7.760650	 33.520940	 11.481370	-0.756004	-9.113700	 120.338800	 17.383410	 30.881710	 30.371620	 5.716227	 19.173190	-3.685159	 5.027444	 0.246877	-9.377972	-2.350882	 35.473990	 5.254307
-0.468627	-0.037568	 1.260949	-178.513000	-0.497020	 5.309902	 7.080010	-15.252720	 176.064300	-13.416340	-46.665030	-10.262240	-174.738600	 85.017490	 164.723500	-2.385833	 28.452760	 0.000004	 22.786320	-14.672600	-179.109900	 4.949551	-39.792820	 2.194802	 35.185040	 82.009320	-23.495890	 2.384659	 28.388700	-0.000001	-15.763980	 4.712315	-8.083297	-8.153038	 10.742930	-13.175680	 15.886890	-3.207088	 26.627900	-91.776150	 78.527380	 180.000000	 50.072110	 47.383810	-80.238580	-2.063250	-2.961207	-91.490970	-1.010881	-24.296150	-2.270074	-4.130319	 21.525730	 0.991547	-5.167930	 0.731704	 3.519349	-1.378229	 35.397820	-2.634230	-2.964486	-0.645776	-0.055352	-9.704750	-27.279870	-9.058697	 89.782100	 78.203920	 180.000000	-58.968100	 40.280350	 92.580310	-7.865504	-10.444660	 80.094680	-10.050610	 19.234700	 15.900850	 5.716227	 19.173190	-3.685159	 5.027444	 0.246877	-9.377972	-2.350882	 35.473990	 5.254307
-0.480776	-0.041045	 1.260476	-177.348800	-0.667768	 5.129848	 3.655772	-14.717720	 177.275200	-12.808670	-46.364590	-9.760571	-174.379800	 85.226360	 164.081100	-2.385833	 28.452760	 0.000004	 20.087940	-14.662940	-178.017800	 5.580844	-40.386400	 2.632022	 29.583070	 80.443150	-18.451240	 2.384659	 28.388700	-0.000001	-16.095360	 4.412827	-8.034799	-8.073566	 11.613760	-12.031280	 16.015220	-4.541084	 26.737360	-91.776150	 78.527360	 180.000000	 48.564480	 46.713760	-78.185340	-2.040461	-2.866362	-91.084720	-1.174488	-24.568760	-2.307893	-4.130319	 21.525730	 0.991547	-5.167930	 0.731704	 3.519349	-1.378229	 35.397820	-2.634230	-3.929230	 1.993992	 2.205557	-11.112420	-29.696830	-14.159030	 89.782070	 78.203890	-180.000000	-66.000050	 37.135400	 103.998500	-10.038370	-9.651406	 67.430090	-14.955610	 9.852983	 18.078790	 5.716227	 19.173190	-3.685159	 5.027444	 0.246877	-9.377972	-2.350882	 35.473990	 5.254307
-0.492976	-0.043276	 1.259596	-175.825400	-1.017597	 5.511540	 0.248150	-13.515270	 178.136100	-11.658170	-44.954280	-8.699516	-173.459100	 86.407240	 162.739800	-2.385833	 28.452760	 0.000004	 17.752710	-16.332170	-177.033100	 6.792811	-43.799710	 3.653050	 25.746440	 79.218830	-15.537010	 2.384659	 28.388700	-0.000001	-16.104340	 4.958543	-7.373968	-6.170590	 9.638806	-12.240920	 15.159840	-3.029572	 26.276110	-91.776220	 78.527420	-180.000000	 47.140810	 47.185980	-75.174280	-2.228500	-2.943695	-94.707200	-1.149672	-25.356070	-2.336068	-4.130319	 21.525730	 0.991547	-5.167930	 0.731704	 3.519349	-1.378229	 35.397820	-2.634230	-4.073151	 1.600001	 1.928101	-10.927130	-28.382570	-13.121010	 89.782120	 78.203850	 180.000000	-67.276930	 40.269390	 97.284040	-11.491770	-8.902270	 58.394420	-17.460860	 0.902726	 30.610800	 5.716227	 19.173190	-3.685159	 5.027444	 0.246877	-9.377972	-2.350882	 35.473990	 5.254307
-0.499233	-0.044741	 1.259784	-174.582600	-1.298142	 4.882152	-2.686783	-12.156810	 179.728000	-10.510010	-43.412600	-7.659016	-170.758500	 87.750840	 159.652500	-2.385833	 28.452760	 0.000004	 18.278910	-18.804150	-174.757500	 6.828123	-48.203560	 3.960337	 29.480550	 78.375140	-19.668040	 2.384659	 28.388700	-0.000001	-15.253390	 5.809820	-5.356795	-3.580185	 6.807095	-12.441250	 14.019170	-0.826984	 25.260100	-91.776160	 78.527380	 180.000000	 48.217650	 46.894440	-77.053220	-2.242522	-3.074633	-94.767870	-1.085030	-26.117580	-2.373987	-4.130319	 21.525730	 0.991547	-5.167930	 0.731704	 3.519349	-1.378229	 35.397820	-2.634230	-4.057074	-0.114947	 0.670386	-10.386370	-25.896200	-9.913139	 89.782100	 78.203870	 180.000000	-59.967430	 44.280780	 84.867840	-10.993090	-9.301738	 61.860230	-12.548650	-0.353994	 33.755200	 5.716227	 19.173190	-3.685159	 5.027444	 0.246877	-9.377972	-2.350882	 35.473990	 5.254307
-0.495209	-0.044447	 1.263502	-173.357400	-2.270268	 5.038047	-6.444474	-9.985315	-179.848600	-9.350218	-41.743740	-6.635971	-165.434700	 88.765520	 153.720100	-2.385833	 28.452760	 0.000004	 20.354010	-19.735090	-173.927800	 4.911105	-45.813290	 2.431144	 28.403440	 74.877760	-18.253070	 2.384659	 28.388700	-0.000001	-13.211850	 7.660132	-5.344424	-0.720152	 6.235516	-10.581920	 14.086630	-1.413939	 24.513140	-91.776240	 78.527350	-180.000000	 49.718420	 45.704520	-78.542300	-2.259191	-3.116159	-95.008530	-1.125766	-26.807280	-2.424949	-4.130319	 21.525730	 0.991547	-5.167930	 0.731704	 3.519349	-1.378229	 35.397820	-2.634230	-4.258738	 0.133345	 1.201660	-10.620670	-26.089060	-10.815830	 89.782110	 78.203870	 180.000000	-52.861970	 46.418740	 75.241100	-9.184606	-9.691572	 71.991940	-7.041343	-1.721246	 26.774500	 5.716227	 19.173190	-3.685159	 5.027444	 0.246877	-9.377972	-2.350882	 35.473990	 5.254307
-0.483426	-0.040529	 1.268428	-172.522000	-2.949622	 5.999489	-10.437650	-8.380665	 179.438200	-8.278064	-40.931480	-5.817558	-76.245400	 88.795200	 64.154530	-2.385833	 28.452760	 0.000004	 21.500170	-19.739000	-174.844100	 3.954539	-38.840040	 1.525714	 21.364310	 71.184570	-10.327770	 2.384659	 28.388700	-0.000001	-10.581990	 9.434080	-6.594410	 2.062038	 6.905293	-10.225020	 14.504870	-2.873765	 25.236350	-91.776250	 78.527420	-179.999900	 51.086520	 44.166960	-79.623760	-2.264648	-3.186828	-94.995770	-1.141725	-27.057420	-2.481282	-4.130319	 21.525730	 0.991547	-5.167930	 0.731704	 3.519349	-1.378229	 35.397820	-2.634230	-4.604819	 0.975914	 2.129776	-11.147520	-27.279730	-12.630940	 89.782160	 78.203870	 179.999900	-50.862680	 47.404900	 72.518750	-8.631762	-9.652881	 74.961110	-5.772117	-7.073356	 21.579960	 5.716227	 19.173190	-3.685159	 5.027444	 0.246877	-9.377972	-2.350882	 35.473990	 5.254307
-0.470427	-0.034761	 1.271667	-171.730300	-3.075481	 5.859550	-13.870840	-7.642947	 179.597700	-7.163418	-40.411180	-5.025412	-38.732330	 87.909030	 26.026700	-2.385833	 28.452760	 0.000004	 25.275190	-19.342420	-174.993500	 2.049808	-34.173140	 0.296117	 23.779180	 70.184790	-11.239600	 2.384659	 28.388700	-0.000001	-8.782958	 10.563300	-7.263101	 4.219384	 6.428556	-8.855162	 14.430080	-3.324949	 24.593780	-91.776340	 78.527380	-179.999800	 51.961730	 43.168460	-80.424610	-2.258903	-3.212142	-94.855090	-1.174679	-27.274080	-2.517715	-4.130319	 21.525730	 0.991547	-5.167930	 0.731704	 3.519349	-1.378229	 35.397820	-2.634230	-4.770153	 0.059039	 1.883482	-11.177860	-26.943280	-11.564660	 89.782090	 78.203830	 180.000000	-49.966750	 48.124920	 71.056370	-8.515879	-10.049120	 76.148520	-5.211413	-11.981760	 18.619610	 5.716227	 19.173190	-3.685159	 5.027444	 0.246877	-9.377972	-2.350882	 35.473990	 5.254307
-0.456203	-0.026988	 1.273785	-170.858000	-3.358953	 6.025268	-17.713450	-6.717774	 179.441000	-5.924911	-40.299400	-4.205692	-39.738500	 86.941550	 26.457500	-2.385833	 28.452760	 0.000004	 31.966000	-19.052470	-175.790800	-1.628306	-32.101250	-1.675680	 31.448430	 71.051490	-15.939040	 2.384659	 28.388700	-0.000001	-7.114415	 11.611090	-8.167437	 6.247521	 5.879794	-7.546371	 14.278060	-3.802262	 24.011930	-91.776160	 78.527350	 180.000000	 52.664620	 42.268830	-80.772370	-2.247764	-3.179229	-94.705520	-1.252420	-27.364730	-2.546084	-4.130319	 21.525730	 0.991547	-5.167930	 0.731704	 3.519349	-1.378229	 35.397820	-2.634230	-5.190186	-0.863714	 2.317478	-11.421200	-26.577820	-11.485470	 89.782110	 78.203900	 180.000000	-49.714270	 48.272880	 70.043860	-8.442986	-10.270230	 76.820760	-5.409904	-17.121970	 15.738510	 5.716227	 19.173190	-3.685159	 5.027444	 0.246877	-9.377972	-2.350882	 35.473990	 5.254307
-0.445739	-0.021137	 1.274994	-170.192500	-3.787584	 6.201696	-21.832350	-5.799241	 179.817000	-4.522422	-40.295030	-3.292874	-34.712590	 86.294510	 20.507400	-2.385833	 28.452760	 0.000004	 34.878640	-18.878390	-176.627100	-3.171029	-31.307590	-2.442986	 32.832920	 69.905260	-16.236690	 2.384659	 28.388700	-0.000001	-5.911458	 12.477410	-8.932956	 7.530295	 5.804347	-6.238671	 14.149880	-4.398091	 23.334930	-91.776120	 78.527360	 180.000000	 53.039310	 41.677390	-80.915660	-2.245360	-3.243200	-94.571150	-1.215082	-27.299590	-2.573937	-4.130319	 21.525730	 0.991547	-5.167930	 0.731704	 3.519349	-1.378229	 35.397820	-2.634230	-5.509814	-1.390934	 2.293734	-11.626160	-26.761520	-10.733280	 89.782170	 78.203850	 179.999900	-49.587330	 48.243250	 69.389710	-8.269877	-9.794234	 77.175710	-5.174757	-21.196580	 13.634240	 5.716227	 19.173190	-3.685159	 5.027444	 0.246877	-9.377972	-2.350882	 35.473990	 5.254307
-0.441372	-0.018713	 1.275758	-170.172800	-4.091090	 6.049458	-25.226460	-5.303688	-179.167400	-3.425043	-40.072470	-2.568742	-19.259860	 85.716410	 3.959539	-2.385833	 28.452760	 0.000004	 32.441840	-18.799340	-177.018700	-2.607304	-31.180430	-2.140921	 30.359280	 67.709880	-14.619750	 2.384659	 28.388700	-0.000001	-5.013947	 12.825620	-9.355475	 7.835872	 6.535138	-5.275545	 14.383490	-5.630186	 23.318400	-91.776140	 78.527420	 180.000000	 52.925700	 41.060290	-80.412350	-2.242949	-3.170949	-94.631400	-1.300799	-26.948640	-2.585905	-4.130319	 21.525730	 0.991547	-5.167930	 0.731704	 3.519349	-1.378229	 35.397820	-2.634230	-5.725604	-0.769717	 2.540461	-12.005570	-28.184110	-11.128000	 89.782070	 78.203870	-180.000000	-50.129690	 48.486120	 69.348790	-8.344323	-10.146880	 77.200000	-6.140526	-23.452870	 12.834680	 5.716227	 19.173190	-3.685159	 5.027444	 0.246877	-9.377972	-2.350882	 35.473990	 5.254307
